<?xml version="1.0" encoding="utf-8"?>
<!-- Generator: Adobe Illustrator 25.3.1, SVG Export Plug-In . SVG Version: 6.00 Build 0)  -->
<svg version="1.1" id="Layer_1" xmlns="http://www.w3.org/2000/svg" xmlns:xlink="http://www.w3.org/1999/xlink" x="0px" y="0px"
	 viewBox="0 0 250 150" style="enable-background:new 0 0 250 150;" xml:space="preserve">
<style type="text/css">
	.st0{fill:#B3483E;}
</style>
<g>
	<path class="st0" d="M127.3,67.9c0.3-0.5,0.5-0.8,0.6-1.2c0.8-1.9,1.5-3.8,2.3-5.6c0.9-2.1,2.3-2.7,4.1-1.9
		c1.7,0.8,2.4,2.2,1.3,4.2c-0.9,1.7-2.2,3.5-3.8,4.6c-2.7,1.9-5.7,3.2-8.5,4.8c-3.1,1.8-6.2,3.5-9.1,5.4c-5.3,3.6-7.5,9.2-9.4,15.1
		c9.1,3.6,18.2,7.2,27.4,10.8c0.9-2.4,1.8-4.6,2.8-7c-5.6-2.2-11-4.4-16.7-6.6c0.8-0.9,1.3-1.9,2.1-2.4c3.4-2.2,6.9-4.2,10.4-6.2
		c3-1.7,6.1-3.1,9-4.9c3.5-2.2,5.7-5.6,6.9-9.7c1.5-5.3,0-10-4.5-13.2c-3.3-2.4-7.1-3.7-11-4.4c-3.7-0.6-7,0.6-9.6,3.4
		c-2.7,3-3.6,6.8-5.1,10.4C120.2,65.1,123.7,66.5,127.3,67.9 M136.6,110.4c-4.3-1.7-8.5-3.4-12.7-5.1c-8.6-3.5-17.2-6.9-25.8-10.4
		c-0.9-0.3-1.7-0.5-1.1-1.9c7.2-17.6,14.3-35.3,21.4-53c0.1-0.2,0.2-0.3,0.4-0.5c13.2,5.3,26.4,10.6,39.9,16
		C151.3,73.9,144,92,136.6,110.4"/>
	<path d="M68.3,94.2H61V66.8h7.2c0,0.9,0,1.7,0,2.9c1.3-2.4,3.3-3.3,5.6-3.3c5,0,5.2,5.5,5.2,6.2c0,6.8,0,21.2-0.1,21.6h-7.3
		c0-0.6,0-11.2,0-16.7c0-1.8,0.2-4.7-1.6-4.7c-2.2,0-1.9,2.9-1.9,4.8C68.3,82.5,68.3,93.5,68.3,94.2"/>
	<path d="M177.6,94.2h-7.3V66.8h7.2c0,0.9,0,1.7,0,2.9c1.3-2.4,3.3-3.3,5.6-3.3c5,0,5.2,5.5,5.2,6.2c0,6.8,0,21.2-0.1,21.6H181
		c0-0.6,0-11.2,0-16.7c0-1.8,0.2-4.7-1.6-4.7c-2.2,0-1.9,2.9-1.9,4.8C177.6,82.5,177.6,93.5,177.6,94.2"/>
	<path d="M47.7,80.5c0,2.3,0,4.6,0,6.9c0,1.2,0.3,2.2,1.7,2.2c1.4,0,1.7-1.1,1.7-2.2c0-4.6,0-9.2,0-13.8c0-1.2-0.2-2.2-1.7-2.2
		c-1.5,0-1.7,1-1.7,2.2C47.7,75.9,47.7,78.2,47.7,80.5 M58.5,80.6c0,2,0,4,0,6.1c0,4.2-1.7,6.4-5.7,7.5c-3.1,0.8-6.1,0.6-9-0.9
		c-2.3-1.2-3.5-3.2-3.5-5.7c-0.1-4.6-0.1-9.2,0-13.8c0.1-3.6,1.9-6.2,5.3-6.8c2.4-0.4,5-0.5,7.3-0.1c3.5,0.6,5.4,3.1,5.5,6.9
		C58.6,76,58.5,78.3,58.5,80.6L58.5,80.6z"/>
	<path d="M92.2,76.7c0-1.4-0.1-2.7-0.1-3.9c0-0.7-0.4-1.4-1.7-1.4c-1,0-1.6,0.6-1.6,1.7c0,1.3,0,2.4,0,3.6L92.2,76.7L92.2,76.7z
		 M99.4,81.3H88.9c0,2.4-0.1,4.6,0.1,6.8c0,0.5,0.3,1.3,1.5,1.3c1.3,0,1.5-1.2,1.6-1.8c0.2-1.7,0.2-2.6,0.2-4.2h7.3
		c-0.1,0.6-3.9,10.1-4.3,10.3c-3.5,1.2-7.1,1.2-10.5-0.6c-2.2-1.2-3.3-3-3.3-5.5c-0.1-4.8-0.1-9.6,0-14.3c0.1-3.4,1.9-5.6,5.1-6.5
		c3.1-0.9,6.1-0.8,9.1,0.5c2.1,0.9,3.5,2.5,3.7,4.9C99.5,75.2,99.4,78.1,99.4,81.3"/>
	<path d="M198.2,73.1c0-1,0.6-1.7,1.6-1.7c1.3,0,1.7,0.7,1.7,1.4c0,1.2,0.1,2.4,0.1,3.9h-3.4C198.2,75.4,198.1,74.3,198.2,73.1
		 M209.1,83.5h-4.3l0,0h-3.1c-0.1,1.6-0.1,2.5-0.2,4.2c-0.1,0.6-0.3,1.8-1.6,1.8c-1.2,0-1.5-0.8-1.5-1.3c-0.2-2.2-0.1-4.4-0.1-6.8
		h10.5c0-3.2,0.1-6.2,0-9.1c-0.2-2.3-1.5-3.9-3.7-4.9c-3-1.3-6-1.3-9.1-0.5c-3.2,0.9-5,3.1-5.1,6.5c-0.1,4.8-0.1,9.6,0,14.3
		c0,2.4,1.2,4.3,3.3,5.5c2.8,1.5,5.7,1.7,8.6,1.1C207.9,93.4,209.4,90.8,209.1,83.5"/>
	<path d="M160.5,80.3c0-2.3,0-4.5,0-6.8c0-1.2-0.2-2.2-1.7-2.2c-1.5,0-1.7,1-1.7,2.2c0,4.6,0,9.2,0,13.8c0,1.2,0.2,2.2,1.7,2.2
		c1.4,0,1.7-1,1.7-2.2C160.5,85,160.5,82.7,160.5,80.3 M167.8,87.2c-0.1,3.5-1.6,5.6-4.8,6.7c-3.3,1.1-6.5,1-9.7-0.5
		c-2.4-1.2-3.5-3.1-3.7-5.8c-0.1-2.2,0.2-6.5,0.2-6.5l5.5-14.2c0,0,5.1-0.4,6.9-0.1c3.6,0.8,5.4,3.2,5.5,7.2
		C167.9,76.2,167.9,85,167.8,87.2"/>
	<polygon points="152.9,98 153.8,103.1 153.8,103.1 154.7,98 158,98 158,106.7 155.8,106.7 155.8,100.2 155.8,100.2 154.6,106.7 
		153,106.7 151.8,100.2 151.8,100.2 151.8,106.7 149.6,106.7 149.6,98 	"/>
	<path d="M162.1,99.8l-0.6,3.7h1.3L162.1,99.8L162.1,99.8z M163.5,98l2.1,8.7h-2.4l-0.2-1.5h-1.8l-0.2,1.5h-2.4l2.1-8.7H163.5z"/>
	<path d="M169,101.7c0.3,0,0.6-0.1,0.7-0.3c0.2-0.2,0.2-0.4,0.2-0.7c0-0.4-0.1-0.6-0.2-0.8s-0.4-0.2-0.7-0.2h-0.4v2L169,101.7
		L169,101.7z M169.8,98c0.4,0,0.8,0.1,1.1,0.2c0.3,0.1,0.6,0.3,0.7,0.5c0.2,0.2,0.3,0.5,0.4,0.7c0.1,0.3,0.1,0.6,0.1,0.9
		c0,0.6-0.1,1-0.4,1.4c-0.2,0.4-0.6,0.6-1.1,0.6v0c0.6,0.1,0.9,0.2,1.1,0.6c0.2,0.3,0.3,0.8,0.3,1.4v0.7v0.4c0,0.1,0,0.2,0,0.3
		c0,0.1,0,0.2,0,0.3c0,0.1,0,0.2,0.1,0.2c0,0.1,0.1,0.1,0.1,0.2c0,0,0.1,0.1,0.2,0.1v0.1h-2.4c-0.1-0.1-0.1-0.2-0.1-0.4
		c0-0.2-0.1-0.3-0.1-0.5s0-0.3,0-0.5s0-0.2,0-0.3v-0.6c0-0.2,0-0.5,0-0.6c0-0.2-0.1-0.3-0.1-0.4c-0.1-0.1-0.1-0.2-0.2-0.2
		c-0.1,0-0.2-0.1-0.3-0.1h-0.6v3.5h-2.3V98L169.8,98L169.8,98z"/>
	<polygon points="175.8,98 175.8,101.3 175.8,101.3 177.5,98 179.9,98 177.7,101.8 180.1,106.7 177.5,106.7 176.2,103.7 
		175.8,104.4 175.8,106.7 173.5,106.7 173.5,98 	"/>
	<polygon points="185.8,98 185.8,99.8 182.9,99.8 182.9,101.3 185.6,101.3 185.6,103.1 182.9,103.1 182.9,104.8 185.9,104.8 
		185.9,106.7 180.6,106.7 180.6,98 	"/>
	<polygon points="186.5,99.9 186.5,98 192.1,98 192.1,99.9 190.4,99.9 190.4,106.7 188.2,106.7 188.2,99.9 	"/>
	<rect x="192.9" y="98" width="2.3" height="8.7"/>
	<polygon points="198.9,98 200.4,103.3 200.4,103.3 200.4,98 202.5,98 202.5,106.7 200,106.7 198.5,101.3 198.5,101.3 198.5,106.7 
		196.4,106.7 196.4,98 	"/>
	<path d="M209.7,101.9v4.7h-1.5l-0.1-0.8l0,0c-0.1,0.2-0.2,0.3-0.3,0.5c-0.1,0.1-0.3,0.2-0.5,0.3c-0.2,0.1-0.3,0.1-0.5,0.1
		c-0.2,0-0.4,0-0.6,0c-0.6,0-1-0.1-1.4-0.3c-0.3-0.2-0.6-0.5-0.8-0.9c-0.2-0.4-0.3-0.9-0.3-1.4c0-0.6-0.1-1.2-0.1-1.9
		c0-0.7,0-1.4,0.1-1.9c0.1-0.6,0.2-1,0.5-1.4c0.2-0.4,0.6-0.7,1-0.9c0.4-0.2,1-0.3,1.6-0.3c0.4,0,0.8,0.1,1.1,0.2
		c0.3,0.1,0.6,0.3,0.9,0.5c0.2,0.2,0.4,0.6,0.6,0.9c0.2,0.4,0.2,0.8,0.2,1.3h-2.2c0-0.5,0-0.8-0.1-1c-0.1-0.2-0.2-0.4-0.5-0.4
		c-0.2,0-0.3,0-0.4,0.1c-0.1,0.1-0.2,0.2-0.2,0.5c-0.1,0.2-0.1,0.5-0.1,0.9c0,0.4,0,0.9,0,1.4s0,1.1,0,1.4c0,0.4,0.1,0.7,0.1,0.9
		c0.1,0.2,0.1,0.4,0.2,0.5c0.1,0.1,0.2,0.1,0.4,0.1c0.1,0,0.2,0,0.3-0.1c0.1-0.1,0.2-0.2,0.2-0.3c0.1-0.1,0.1-0.3,0.2-0.6
		c0-0.2,0.1-0.6,0.1-0.9h-0.8v-1.5L209.7,101.9L209.7,101.9z"/>
</g>
</svg>
