<?xml version="1.0" encoding="utf-8"?>
<!-- Generator: Adobe Illustrator 25.3.1, SVG Export Plug-In . SVG Version: 6.00 Build 0)  -->
<svg version="1.1" id="Layer_1" xmlns="http://www.w3.org/2000/svg" xmlns:xlink="http://www.w3.org/1999/xlink" x="0px" y="0px"
	 viewBox="0 0 250 150" style="enable-background:new 0 0 250 150;" xml:space="preserve">
<style type="text/css">
	.st0{fill:#503276;}
	.st1{fill:#BD5AA1;}
	.st2{fill:#F0802D;}
	.st3{fill:#58B3D9;}
	.st4{fill:#44C3F0;}
	.st5{fill:#B15C9F;}
	.st6{fill:#C0BDBD;}
	.st7{fill:#827F81;}
</style>
<g>
	<path class="st0" d="M37,84c1.1-3.9,4.7-6.5,8.8-6.5c0,1.7,0,3.5,0,5.2c-2.8,0.6-4.2,2.4-3.7,4.6c0.7,2.9,4.2,4,6.4,1.9
		c0.6-0.6,0.9-0.7,1.6-0.2c0.9,0.6,1.8,1.1,2.7,1.6c0.9,0.4,0.9,0.8,0.3,1.5c-2.3,2.8-5.3,4-8.9,3.4c-3.6-0.7-6-2.9-7.2-6.4
		C36.4,86.1,36.9,84.4,37,84z"/>
	<path class="st0" d="M49.4,60.4c-0.2-0.3-0.4-0.6-0.7-0.9c-1-1.3-2.7-1.8-4.2-1.3C43,58.7,42,60.1,42,61.8c0,2.6-0.1,5.2,0,7.8
		c0,1-0.3,1.3-1.2,1.2c-1.3-0.1-2.7-0.1-4-0.1c0-3,0-5.9-0.1-8.9c0-0.4,0.1-2.1,0.2-2.3c1.5-6.1,9.5-9.4,15.1-4.3
		C50.9,56.8,50.1,58.5,49.4,60.4z"/>
	<path class="st0" d="M86.3,68.3c-4,3-7.9,3.3-11.4,1c-4.3-2.9-5.4-8.6-2.3-12.8c3-4.2,8.9-5,13-1.8c0.2,0.2,0.5,0.4,0.8,0.6
		c0.1,0.1,0.1,0.2,0.2,0.3c-0.1,4.1-0.1,8.2,0,12.4C86.3,68.1,86.3,68.2,86.3,68.3z M83.6,61.7c0-2.1-1.7-3.7-3.8-3.7
		s-3.8,1.7-3.7,3.7c0,2,1.7,3.7,3.8,3.7C81.9,65.5,83.6,63.8,83.6,61.7z"/>
	<path class="st0" d="M92.9,80c2.9-2.7,6.3-3.3,9.9-1.8c3.6,1.5,5.4,4.4,5.5,8.3c0.1,2.7,0,5.4,0,8.1c0,0.8-0.2,1.2-1.1,1.1
		c-1.4-0.1-3.1,0.6-4-0.2c-0.9-0.7-0.2-2.5-0.3-3.8c-0.1-1.5,0-2.9,0-4.4c0-2.3-0.9-3.7-2.7-4.3c-1.8-0.6-3.3,0.2-4.6,2.1
		c-0.1,0.1-0.2,0.2-0.3,0.3c-0.5-1.9-1.3-3.6-2.5-5.1C93,80.2,93,80.1,92.9,80z"/>
	<path class="st1" d="M92.9,80c0.1,0.1,0,0.1,0,0.2c-0.6,0.2-0.8,0.7-1.2,1.1c-1,1.3-1.4,2.8-1.8,4.3c-1-2-2.3-3-4.1-2.8
		c-1.6,0.2-3.1,1.5-3.3,3c-0.1,1-0.1,2-0.1,3c0,1.9-0.1,3.8,0,5.6c0,0.9-0.2,1.3-1.1,1.2c-1.1-0.1-2.2,0-3.3,0c-0.6,0-1-0.1-1-0.8
		c0.1-3.1-0.3-6.3,0.2-9.4c1-7,8.8-10.2,14.6-6.1C92.2,79.5,92.5,79.9,92.9,80z"/>
	<path class="st1" d="M52.2,55.2c2.4-2,5.1-3,8.3-2.3c4,0.8,7,4.3,7.1,8.3c0.1,2.8,0,5.7,0.1,8.5c0,0.8-0.3,1-1,1
		c-1-0.1-2.1-0.1-3.2,0c-0.8,0.1-1.1-0.2-1.1-1.1c0.1-2.4,0-4.8,0-7.1c0-2.5-1-4-2.9-4.4c-1.9-0.4-3.5,0.4-4.6,2.6
		C54.4,58.7,53.6,56.8,52.2,55.2z"/>
	<path class="st0" d="M65.4,77.5c5-0.2,9.2,4,9.1,9.3c-0.1,5-4.4,9.1-9.1,8.8c0-1.7,0-3.5,0-5.2c3-0.6,4.6-2.9,3.5-5.3
		c-0.7-1.5-1.9-2.1-3.5-2.3C65.4,81,65.4,79.2,65.4,77.5z"/>
	<path class="st2" d="M65.4,90.4c0,1.7,0,3.5,0,5.2c-3.6,0.2-7.3-2.3-8.6-6c-1.4-3.8,0-8,3.3-10.4c1.6-1.2,3.4-1.8,5.4-1.7
		c0,1.7,0,3.5,0,5.2c-0.4,0.1-0.8,0.1-1.2,0.3c-1.6,0.6-2.7,2.1-2.6,3.8C61.7,88.7,63,89.9,65.4,90.4z"/>
	<path class="st3" d="M90,85.6c0.4-1.5,0.8-3,1.8-4.3c0.3-0.4,0.6-0.9,1.2-1.1c1.3,1.5,2,3.3,2.5,5.1c0,3-0.1,6.1,0,9.1
		c0,1-0.4,1.2-1.3,1.2c-4.2,0-4.2,0.1-4.2-4.1C90,89.6,90,87.6,90,85.6z"/>
	<path class="st4" d="M52.2,55.2c1.4,1.6,2.2,3.5,2.7,5.5c0,2.8-0.1,5.6,0,8.3c0.1,1.5-0.4,1.9-1.8,1.7c-0.9-0.1-1.7-0.1-2.6,0
		c-0.9,0.1-1.1-0.3-1.1-1.1c0-3.1,0-6.2,0-9.3c0.7-1.8,1.5-3.6,2.7-5.1C52.1,55.2,52.1,55.2,52.2,55.2z"/>
	<path class="st2" d="M86.4,55.6c-0.1-0.1-0.1-0.2-0.2-0.3c0.2-2.6,0.2-2.6,2.8-2.6c2.6,0,2.6,0,2.6,2.6c0,4.8,0,9.5,0,14.2
		c0,1-0.3,1.4-1.3,1.3c-0.4-0.1-0.8,0-1.2,0c-2.7,0-2.7,0-2.8-2.5c0.1-0.1,0.1-0.2,0.1-0.3C89.8,64.5,89.8,59,86.4,55.6z"/>
	<path class="st0" d="M100.1,62c0,2.6,0,5.3,0.1,7.9c0,0.6-0.2,0.9-0.9,0.9c-4.6,0.3-4.6,0.4-4.6-4.2c0-1.5,0-3.1,0.1-4.6
		C96.5,62,98.3,62,100.1,62z"/>
	<path class="st4" d="M100.2,53.3c2.3-0.7,4.7-0.7,7-0.7c1,0,1.3,0.3,1.2,1.3c-0.1,1-0.1,2.1,0,3.1c0.1,0.9-0.3,1.1-1.1,1.1
		c-0.8-0.1-1.7,0.1-2.5,0c-2.2-0.2-3.7,0.7-4.7,2.6c0-2.4-0.1-4.8-0.1-7.3C100.1,53.4,100.1,53.4,100.2,53.3z"/>
	<path class="st3" d="M45.8,82.7c0-1.7,0-3.5,0-5.2c2.9-0.1,5.2,1.2,7.1,3.2c0.5,0.6,0.4,0.9-0.2,1.3c-0.5,0.3-1,0.6-1.5,1
		c-1.2,0.9-2.3,1.7-3.7,0.2C47.1,82.8,46.4,82.8,45.8,82.7z"/>
	<path class="st5" d="M100,53.4c0,2.4,0.1,4.8,0.1,7.3c0,0.4-0.1,0.9-0.1,1.3c-1.8,0-3.5,0-5.3,0c-0.1-1-0.2-2,0-3
		c0.2,0,0.3,0.4,0.4,0.1C96,56.6,97.8,54.8,100,53.4z"/>
	<path class="st6" d="M111.9,52.8c0,14.1,0,28.3,0,42.5c-0.1,0-0.1,0-0.2,0c0-14.1,0-28.3,0-42.5C111.7,52.9,111.8,52.8,111.9,52.8z
		"/>
	<path class="st0" d="M100,53.4c-2.3,1.4-4.1,3.1-4.9,5.7C95,59.5,94.9,59,94.7,59c0-1.8,0-3.6,0-5.4c0-0.7,0.2-1,0.9-0.9
		c1.2,0,2.4,0,3.5,0c0.5,0,0.9,0,1,0.7C100.1,53.4,100.1,53.4,100,53.4z"/>
	<path class="st4" d="M86.4,55.6c3.4,3.4,3.4,8.9,0,12.4C86.3,63.8,86.3,59.7,86.4,55.6z"/>
	<g>
		<path class="st7" d="M118.1,79.6l0.1,0.9c0.2-0.3,0.4-0.5,0.7-0.7c0.3-0.2,0.6-0.2,1-0.2s0.7,0.1,1,0.3c0.3,0.2,0.4,0.5,0.6,0.9
			c0.2-0.4,0.4-0.6,0.7-0.9c0.3-0.2,0.6-0.3,1-0.3c0.6,0,1,0.2,1.3,0.6c0.3,0.4,0.4,0.9,0.4,1.7v3h-0.6v-3c0-0.6-0.1-1.1-0.3-1.4
			c-0.2-0.3-0.6-0.4-0.9-0.4c-0.4,0-0.8,0.1-1,0.4c-0.2,0.2-0.4,0.6-0.4,1c0,0,0,0.1,0,0.1c0,0,0,0.1,0,0.1v3.1h-0.6v-3
			c0-0.6-0.1-1.1-0.3-1.4c-0.2-0.3-0.6-0.4-0.9-0.4c-0.4,0-0.7,0.1-1,0.3c-0.2,0.2-0.4,0.5-0.5,0.8v3.6h-0.6v-5.2L118.1,79.6
			L118.1,79.6z"/>
		<path class="st7" d="M130.7,84.8c0-0.2-0.1-0.3-0.1-0.5c0-0.1,0-0.3,0-0.4c-0.2,0.3-0.4,0.5-0.7,0.7c-0.3,0.2-0.7,0.3-1.1,0.3
			c-0.5,0-0.9-0.1-1.2-0.4c-0.3-0.3-0.4-0.6-0.4-1.1s0.2-0.8,0.6-1.1c0.4-0.3,0.9-0.4,1.6-0.4h1.3v-0.6c0-0.4-0.1-0.7-0.4-0.9
			c-0.2-0.2-0.6-0.3-1-0.3c-0.4,0-0.7,0.1-0.9,0.3c-0.2,0.2-0.4,0.4-0.4,0.7h-0.5v0c0-0.4,0.1-0.7,0.5-1c0.4-0.3,0.8-0.4,1.4-0.4
			s1,0.1,1.4,0.4c0.3,0.3,0.5,0.7,0.5,1.2v2.5c0,0.2,0,0.4,0,0.5c0,0.2,0.1,0.3,0.1,0.5L130.7,84.8L130.7,84.8z M128.8,84.4
			c0.4,0,0.8-0.1,1.1-0.3c0.3-0.2,0.6-0.5,0.7-0.8v-1h-1.3c-0.5,0-0.9,0.1-1.2,0.3c-0.3,0.2-0.4,0.5-0.4,0.8c0,0.3,0.1,0.5,0.3,0.7
			C128.2,84.3,128.5,84.4,128.8,84.4z"/>
		<path class="st7" d="M136.3,80.1l-0.4,0c-0.4,0-0.7,0.1-0.9,0.3c-0.2,0.2-0.4,0.5-0.5,0.8v3.6h-0.6v-5.2h0.5l0.1,0.9v0.1
			c0.1-0.3,0.4-0.6,0.6-0.7c0.2-0.2,0.6-0.3,0.9-0.3c0.1,0,0.1,0,0.2,0c0.1,0,0.1,0,0.2,0L136.3,80.1z"/>
		<path class="st7" d="M139.6,82.3H139v2.5h-0.6v-7.5h0.6v4.4h0.6l2-2.2h0.7v0l-2.1,2.3l2.3,2.8l0,0h-0.7L139.6,82.3z"/>
		<path class="st7" d="M146.3,84.9c-0.7,0-1.2-0.2-1.6-0.7c-0.4-0.5-0.6-1.1-0.6-1.8v-0.3c0-0.7,0.2-1.4,0.6-1.9
			c0.4-0.5,0.9-0.7,1.6-0.7s1.1,0.2,1.5,0.6c0.4,0.4,0.5,0.9,0.5,1.6v0.4h-3.6v0.2c0,0.6,0.1,1.1,0.4,1.5c0.3,0.4,0.7,0.6,1.2,0.6
			c0.3,0,0.6-0.1,0.9-0.2c0.3-0.1,0.5-0.2,0.7-0.4l0.2,0.4c-0.2,0.2-0.4,0.4-0.7,0.5C147.1,84.8,146.7,84.9,146.3,84.9z M146.2,80
			c-0.4,0-0.8,0.2-1.1,0.5c-0.3,0.3-0.4,0.7-0.5,1.2l0,0h3v-0.1c0-0.5-0.1-0.8-0.4-1.1C147,80.2,146.7,80,146.2,80z"/>
		<path class="st7" d="M151.5,78.3v1.3h1.1v0.5h-1.1v3.4c0,0.3,0.1,0.6,0.2,0.7c0.1,0.1,0.3,0.2,0.5,0.2c0.1,0,0.1,0,0.2,0
			s0.1,0,0.2,0l0.1,0.4c-0.1,0-0.2,0.1-0.3,0.1c-0.1,0-0.2,0-0.3,0c-0.4,0-0.6-0.1-0.9-0.3c-0.2-0.2-0.3-0.6-0.3-1.1v-3.4H150v-0.5
			h0.9v-1.3L151.5,78.3L151.5,78.3z"/>
		<path class="st7" d="M155.5,78.1h-0.6v-0.8h0.6V78.1z M155.5,84.8h-0.6v-5.2h0.6V84.8z"/>
		<path class="st7" d="M158.8,79.6l0.1,0.9c0.2-0.3,0.4-0.6,0.7-0.7c0.3-0.2,0.6-0.2,1-0.2c0.6,0,1,0.2,1.3,0.5
			c0.3,0.3,0.4,0.9,0.4,1.6v3.1h-0.6v-3.1c0-0.6-0.1-1-0.3-1.3c-0.2-0.2-0.5-0.4-0.9-0.4c-0.4,0-0.7,0.1-1,0.3
			c-0.2,0.2-0.4,0.5-0.6,0.8v3.7h-0.6v-5.2L158.8,79.6L158.8,79.6z"/>
		<path class="st7" d="M164.7,82.3c0-0.8,0.2-1.5,0.5-2c0.4-0.5,0.8-0.7,1.5-0.7c0.4,0,0.7,0.1,0.9,0.2c0.3,0.1,0.5,0.4,0.7,0.6
			l0.1-0.8h0.5v7.2h-0.6v-2.7c-0.2,0.2-0.4,0.4-0.7,0.6c-0.3,0.1-0.6,0.2-0.9,0.2c-0.6,0-1.1-0.2-1.5-0.7c-0.4-0.5-0.5-1.1-0.5-1.9
			L164.7,82.3L164.7,82.3z M165.3,82.3c0,0.6,0.1,1.1,0.4,1.5c0.2,0.4,0.6,0.6,1.1,0.6c0.4,0,0.7-0.1,0.9-0.2
			c0.2-0.2,0.4-0.4,0.6-0.7v-2.6c-0.1-0.3-0.3-0.5-0.6-0.7c-0.2-0.2-0.6-0.3-0.9-0.3c-0.5,0-0.9,0.2-1.1,0.6c-0.2,0.4-0.4,1-0.4,1.6
			V82.3z"/>
		<path class="st7" d="M176.6,83.5l0.2,0.6h0l0.2-0.6l1.4-3.9h0.6l-2,5.2h-0.5l-2-5.2h0.6L176.6,83.5z"/>
		<path class="st7" d="M182.7,79.5c0.7,0,1.2,0.2,1.6,0.7c0.4,0.5,0.6,1.1,0.6,1.8v0.3c0,0.7-0.2,1.4-0.6,1.9
			c-0.4,0.5-0.9,0.7-1.6,0.7s-1.1-0.2-1.5-0.6s-0.5-0.9-0.5-1.6v-0.4h3.6v-0.2c0-0.6-0.1-1.1-0.4-1.5c-0.3-0.4-0.7-0.6-1.2-0.6
			c-0.3,0-0.6,0.1-0.9,0.2c-0.3,0.1-0.5,0.2-0.7,0.4l-0.2-0.4c0.2-0.2,0.4-0.4,0.7-0.5C181.9,79.6,182.3,79.5,182.7,79.5z
			 M182.7,84.4c0.4,0,0.8-0.2,1.1-0.5c0.3-0.3,0.4-0.7,0.5-1.2l0,0h-3v0.1c0,0.5,0.1,0.8,0.4,1.1C181.9,84.3,182.3,84.4,182.7,84.4z
			"/>
		<path class="st7" d="M118.8,92.8h-0.6v2.5h-0.6v-7.5h0.6v4.4h0.6l2-2.2h0.7v0l-2.1,2.3l2.3,2.8l0,0h-0.7L118.8,92.8z"/>
		<path class="st7" d="M123.3,92.6c0-0.8,0.2-1.4,0.6-1.9s1-0.7,1.7-0.7c0.7,0,1.2,0.2,1.7,0.7c0.4,0.5,0.6,1.1,0.6,1.9v0.2
			c0,0.8-0.2,1.4-0.6,1.9c-0.4,0.5-1,0.7-1.7,0.7c-0.7,0-1.2-0.2-1.7-0.7c-0.4-0.5-0.6-1.1-0.6-1.9L123.3,92.6L123.3,92.6z
			 M123.8,92.8c0,0.6,0.1,1.1,0.4,1.5c0.3,0.4,0.7,0.6,1.3,0.6c0.5,0,0.9-0.2,1.3-0.6c0.3-0.4,0.5-0.9,0.5-1.5v-0.2
			c0-0.6-0.2-1.1-0.5-1.5c-0.3-0.4-0.7-0.6-1.3-0.6c-0.5,0-1,0.2-1.3,0.6c-0.3,0.4-0.4,0.9-0.4,1.5V92.8z"/>
		<path class="st7" d="M130.7,90.1l0.1,0.9c0.2-0.3,0.4-0.5,0.7-0.7s0.6-0.2,1-0.2c0.4,0,0.7,0.1,1,0.3c0.3,0.2,0.4,0.5,0.6,0.9
			c0.2-0.4,0.4-0.6,0.7-0.9c0.3-0.2,0.6-0.3,1-0.3c0.6,0,1,0.2,1.3,0.6c0.3,0.4,0.4,0.9,0.4,1.7v3h-0.6v-3c0-0.6-0.1-1.1-0.3-1.4
			c-0.2-0.3-0.6-0.4-0.9-0.4c-0.4,0-0.8,0.1-1,0.4c-0.2,0.2-0.4,0.6-0.4,1c0,0,0,0.1,0,0.1c0,0,0,0.1,0,0.1v3.1h-0.6v-3
			c0-0.6-0.1-1.1-0.3-1.4c-0.2-0.3-0.6-0.4-0.9-0.4c-0.4,0-0.7,0.1-1,0.3c-0.2,0.2-0.4,0.5-0.5,0.8v3.6h-0.6V90L130.7,90.1
			L130.7,90.1z"/>
		<path class="st7" d="M140.6,90.1l0.1,0.9c0.2-0.3,0.4-0.5,0.7-0.7s0.6-0.2,1-0.2c0.4,0,0.7,0.1,1,0.3c0.3,0.2,0.4,0.5,0.6,0.9
			c0.2-0.4,0.4-0.6,0.7-0.9c0.3-0.2,0.6-0.3,1-0.3c0.6,0,1,0.2,1.3,0.6c0.3,0.4,0.4,0.9,0.4,1.7v3h-0.6v-3c0-0.6-0.1-1.1-0.3-1.4
			c-0.2-0.3-0.6-0.4-0.9-0.4c-0.4,0-0.8,0.1-1,0.4c-0.2,0.3-0.4,0.6-0.4,1c0,0,0,0.1,0,0.1c0,0,0,0.1,0,0.1v3.1h-0.6v-3
			c0-0.6-0.1-1.1-0.3-1.4c-0.2-0.3-0.6-0.4-0.9-0.4c-0.4,0-0.7,0.1-1,0.3c-0.2,0.2-0.4,0.5-0.5,0.8v3.6h-0.6V90L140.6,90.1
			L140.6,90.1z"/>
		<path class="st7" d="M153.3,94.5c-0.2,0.3-0.4,0.5-0.7,0.7s-0.6,0.2-1,0.2c-0.6,0-1-0.2-1.3-0.6c-0.3-0.4-0.5-0.9-0.5-1.7v-3h0.6
			v3c0,0.6,0.1,1.1,0.3,1.4c0.2,0.3,0.5,0.4,0.9,0.4c0.4,0,0.8-0.1,1-0.3c0.2-0.2,0.4-0.5,0.6-0.8v-3.7h0.6v5.2h-0.5L153.3,94.5z"/>
		<path class="st7" d="M157.1,90.1l0.1,0.9c0.2-0.3,0.4-0.6,0.7-0.7c0.3-0.2,0.6-0.2,1-0.2c0.6,0,1,0.2,1.3,0.5
			c0.3,0.3,0.4,0.9,0.4,1.6v3.1h-0.6v-3.1c0-0.6-0.1-1-0.3-1.3c-0.2-0.2-0.5-0.4-0.9-0.4c-0.4,0-0.7,0.1-1,0.3
			c-0.2,0.2-0.4,0.5-0.6,0.8v3.7h-0.6v-5.2L157.1,90.1L157.1,90.1z"/>
		<path class="st7" d="M163.9,88.6h-0.6v-0.8h0.6V88.6z M163.9,95.3h-0.6v-5.2h0.6V95.3z"/>
		<path class="st7" d="M167.8,92.8h-0.6v2.5h-0.6v-7.5h0.6v4.4h0.6l2-2.2h0.7v0l-2.1,2.3l2.3,2.8l0,0h-0.7L167.8,92.8z"/>
		<path class="st7" d="M175.9,95.3c0-0.2-0.1-0.3-0.1-0.5s0-0.3,0-0.4c-0.2,0.3-0.4,0.5-0.7,0.7c-0.3,0.2-0.7,0.3-1.1,0.3
			c-0.5,0-0.9-0.1-1.2-0.4c-0.3-0.3-0.4-0.6-0.4-1.1s0.2-0.8,0.6-1.1c0.4-0.3,0.9-0.4,1.6-0.4h1.3v-0.6c0-0.4-0.1-0.7-0.4-0.9
			c-0.2-0.2-0.6-0.3-1-0.3c-0.4,0-0.7,0.1-0.9,0.3c-0.2,0.2-0.4,0.4-0.4,0.7h-0.5v0c0-0.4,0.1-0.7,0.5-1c0.4-0.3,0.8-0.4,1.4-0.4
			c0.6,0,1,0.1,1.4,0.4s0.5,0.7,0.5,1.2v2.5c0,0.2,0,0.4,0,0.5c0,0.2,0.1,0.3,0.1,0.5L175.9,95.3L175.9,95.3z M174,94.9
			c0.4,0,0.8-0.1,1.1-0.3c0.3-0.2,0.6-0.5,0.7-0.8v-1h-1.3c-0.5,0-0.9,0.1-1.2,0.3c-0.3,0.2-0.4,0.5-0.4,0.8c0,0.3,0.1,0.5,0.3,0.7
			C173.4,94.8,173.7,94.9,174,94.9z"/>
		<path class="st7" d="M182.2,94c0-0.2-0.1-0.4-0.3-0.6c-0.2-0.2-0.6-0.3-1.1-0.4c-0.6-0.1-1.1-0.3-1.4-0.5
			c-0.3-0.2-0.4-0.5-0.4-0.9c0-0.4,0.2-0.7,0.5-1s0.8-0.4,1.3-0.4c0.6,0,1,0.1,1.4,0.4c0.3,0.3,0.5,0.7,0.5,1.1v0h-0.5
			c0-0.3-0.1-0.5-0.4-0.7c-0.2-0.2-0.6-0.3-1-0.3c-0.4,0-0.7,0.1-0.9,0.3c-0.2,0.2-0.3,0.4-0.3,0.6c0,0.2,0.1,0.4,0.3,0.6
			c0.2,0.2,0.6,0.3,1.1,0.4c0.6,0.1,1.1,0.3,1.4,0.6c0.3,0.2,0.5,0.6,0.5,1c0,0.4-0.2,0.8-0.5,1c-0.4,0.3-0.8,0.4-1.4,0.4
			c-0.6,0-1.1-0.1-1.5-0.4c-0.4-0.3-0.5-0.7-0.5-1.1v0h0.5c0,0.4,0.2,0.6,0.5,0.8s0.6,0.2,1,0.2c0.4,0,0.7-0.1,1-0.3
			C182.1,94.4,182.2,94.2,182.2,94z"/>
		<path class="st7" d="M185.9,88.6h-0.6v-0.8h0.6V88.6z M185.9,95.3h-0.6v-5.2h0.6V95.3z"/>
		<path class="st7" d="M190.1,93.9l0.2,0.6h0l1.6-4.4h0.6l-2.2,6c-0.1,0.4-0.3,0.7-0.5,0.9c-0.2,0.2-0.5,0.4-0.9,0.4
			c-0.1,0-0.1,0-0.2,0c-0.1,0-0.2,0-0.2-0.1l0.1-0.5c0,0,0.1,0,0.2,0c0.1,0,0.1,0,0.2,0c0.2,0,0.4-0.1,0.6-0.3
			c0.1-0.2,0.3-0.4,0.4-0.7l0.3-0.7l-2-5.1h0.6L190.1,93.9z"/>
		<path class="st7" d="M197.8,95.3c0-0.2-0.1-0.3-0.1-0.5s0-0.3,0-0.4c-0.2,0.3-0.4,0.5-0.7,0.7c-0.3,0.2-0.7,0.3-1.1,0.3
			c-0.5,0-0.9-0.1-1.2-0.4c-0.3-0.3-0.4-0.6-0.4-1.1s0.2-0.8,0.6-1.1s0.9-0.4,1.6-0.4h1.3v-0.6c0-0.4-0.1-0.7-0.4-0.9
			c-0.2-0.2-0.6-0.3-1-0.3c-0.4,0-0.7,0.1-0.9,0.3c-0.2,0.2-0.4,0.4-0.4,0.7h-0.5v0c0-0.4,0.1-0.7,0.5-1c0.4-0.3,0.8-0.4,1.4-0.4
			c0.6,0,1,0.1,1.4,0.4s0.5,0.7,0.5,1.2v2.5c0,0.2,0,0.4,0,0.5s0.1,0.3,0.1,0.5L197.8,95.3L197.8,95.3z M195.9,94.9
			c0.4,0,0.8-0.1,1.1-0.3c0.3-0.2,0.6-0.5,0.7-0.8v-1h-1.3c-0.5,0-0.9,0.1-1.2,0.3c-0.3,0.2-0.4,0.5-0.4,0.8c0,0.3,0.1,0.5,0.3,0.7
			C195.3,94.8,195.6,94.9,195.9,94.9z"/>
		<path class="st7" d="M201.7,95.3h-0.6v-7.5h0.6V95.3z"/>
		<path class="st7" d="M207.7,95.3c0-0.2-0.1-0.3-0.1-0.5c0-0.1,0-0.3,0-0.4c-0.2,0.3-0.4,0.5-0.7,0.7c-0.3,0.2-0.7,0.3-1.1,0.3
			c-0.5,0-0.9-0.1-1.2-0.4c-0.3-0.3-0.4-0.6-0.4-1.1s0.2-0.8,0.6-1.1c0.4-0.3,0.9-0.4,1.6-0.4h1.3v-0.6c0-0.4-0.1-0.7-0.4-0.9
			c-0.2-0.2-0.6-0.3-1-0.3c-0.4,0-0.7,0.1-0.9,0.3c-0.2,0.2-0.4,0.4-0.4,0.7h-0.5v0c0-0.4,0.1-0.7,0.5-1c0.4-0.3,0.8-0.4,1.4-0.4
			c0.6,0,1,0.1,1.4,0.4s0.5,0.7,0.5,1.2v2.5c0,0.2,0,0.4,0,0.5c0,0.2,0.1,0.3,0.1,0.5L207.7,95.3L207.7,95.3z M205.8,94.9
			c0.4,0,0.8-0.1,1.1-0.3c0.3-0.2,0.6-0.5,0.7-0.8v-1h-1.3c-0.5,0-0.9,0.1-1.2,0.3c-0.3,0.2-0.4,0.5-0.4,0.8c0,0.3,0.1,0.5,0.3,0.7
			C205.2,94.8,205.4,94.9,205.8,94.9z"/>
		<path class="st7" d="M213.2,90.6l-0.4,0c-0.4,0-0.7,0.1-0.9,0.3c-0.2,0.2-0.4,0.5-0.5,0.8v3.6h-0.6v-5.2h0.5l0.1,0.9V91
			c0.1-0.3,0.4-0.6,0.6-0.7c0.2-0.2,0.6-0.3,0.9-0.3c0.1,0,0.1,0,0.2,0c0.1,0,0.1,0,0.2,0L213.2,90.6z"/>
	</g>
</g>
</svg>
